<?xml version="1.0" encoding="UTF-8" standalone="no"?>
<svg
   xmlns:dc="http://purl.org/dc/elements/1.1/"
   xmlns:cc="http://creativecommons.org/ns#"
   xmlns:rdf="http://www.w3.org/1999/02/22-rdf-syntax-ns#"
   xmlns:svg="http://www.w3.org/2000/svg"
   xmlns="http://www.w3.org/2000/svg"
   xmlns:sodipodi="http://sodipodi.sourceforge.net/DTD/sodipodi-0.dtd"
   xmlns:inkscape="http://www.inkscape.org/namespaces/inkscape"
   width="210mm"
   height="297mm"
   viewBox="0 0 210 297"
   version="1.1"
   id="svg8"
   inkscape:version="1.0.2 (e86c870879, 2021-01-15)"
   sodipodi:docname="elf_diff_logo.svg">
  <defs
     id="defs2">
    <rect
       x="36.653678"
       y="92.273299"
       width="118.54066"
       height="81.260082"
       id="rect12" />
  </defs>
  <sodipodi:namedview
     id="base"
     pagecolor="#ffffff"
     bordercolor="#666666"
     borderopacity="1.0"
     inkscape:pageopacity="0.0"
     inkscape:pageshadow="2"
     inkscape:zoom="7.4697021"
     inkscape:cx="171.46775"
     inkscape:cy="373.62317"
     inkscape:document-units="mm"
     inkscape:current-layer="text10"
     inkscape:document-rotation="0"
     showgrid="false"
     inkscape:window-width="1920"
     inkscape:window-height="1007"
     inkscape:window-x="0"
     inkscape:window-y="0"
     inkscape:window-maximized="1" />
  <metadata
     id="metadata5">
    <rdf:RDF>
      <cc:Work
         rdf:about="">
        <dc:format>image/svg+xml</dc:format>
        <dc:type
           rdf:resource="http://purl.org/dc/dcmitype/StillImage" />
        <dc:title></dc:title>
      </cc:Work>
    </rdf:RDF>
  </metadata>
  <g
     inkscape:label="Layer 1"
     inkscape:groupmode="layer"
     id="layer1">
    <g
       aria-label="11"
       id="text10"
       style="font-style:normal;font-weight:normal;font-size:10.5833px;line-height:1.25;font-family:sans-serif;white-space:pre;shape-inside:url(#rect12);fill:#000000;fill-opacity:1;stroke:none">
      <g
         id="g887"
         transform="translate(-0.913798,-0.172203)">
        <path
           d="m 46.792488,101.76393 -2.822438,0.0787 0.646141,-5.121087 c -0.117133,0.11024 -0.268717,0.21876 -0.454752,0.32556 -0.186034,0.10335 -0.375514,0.19637 -0.568439,0.27905 -0.189479,0.0827 -0.353121,0.14641 -0.490924,0.1912 v -1.01802 c 0.117133,-0.0482 0.251491,-0.11886 0.403075,-0.21187 0.151583,-0.0965 0.301444,-0.19982 0.449583,-0.31006 0.148139,-0.11024 0.279052,-0.21532 0.39274,-0.31523 0.117133,-0.0999 0.19637,-0.17742 0.237711,-0.23254 h 1.11104 z"
           style="font-style:normal;font-variant:normal;font-weight:normal;font-stretch:normal;font-size:10.5833px;line-height:1.25;font-family:'Abyssinica SIL';-inkscape-font-specification:'Abyssinica SIL';white-space:pre;shape-inside:url(#rect12);fill:#ff0000;fill-opacity:1;stroke:none"
           id="path16-3"
           sodipodi:nodetypes="ccccccccscccc" />
        <path
           style="font-style:normal;font-weight:normal;font-size:10.5833px;line-height:1.25;font-family:sans-serif;white-space:pre;shape-inside:url(#rect12);fill:#008000;fill-opacity:1;stroke:#008000;stroke-width:0.264583px;stroke-linecap:butt;stroke-linejoin:miter;stroke-opacity:1"
           d="m 43.198504,99.716683 1.082266,0.830077 0.775908,-0.980807 c 0.577656,0.946967 0.238229,1.071007 0.924184,0.0481 l 0.479579,0.890497 1.067987,-0.911837 -0.343362,2.355157 -3.641655,-0.10524 z"
           id="path23-0"
           sodipodi:nodetypes="ccccccccc" />
        <ellipse
           style="font-style:normal;font-weight:normal;font-size:10.5833px;line-height:1.25;font-family:sans-serif;white-space:pre;shape-inside:url(#rect12);fill:#ffff00;fill-opacity:1;stroke:#2b0000;stroke-width:0.04;stroke-miterlimit:4;stroke-dasharray:none"
           id="path854-5"
           cx="43.099277"
           cy="97.394951"
           rx="0.20712149"
           ry="0.22130854" />
      </g>
      <g
         id="g892"
         transform="translate(0,-0.123974)">
        <path
           d="m 41.548766,101.7157 -2.822438,0.0787 0.646141,-5.121089 c -0.117133,0.110243 -0.268717,0.218763 -0.454752,0.32556 -0.186034,0.103353 -0.375514,0.19637 -0.568439,0.279052 -0.189479,0.08268 -0.353121,0.146416 -0.490924,0.191202 v -1.018022 c 0.117133,-0.04823 0.251491,-0.118858 0.403075,-0.211873 0.151583,-0.09646 0.301444,-0.199814 0.449583,-0.310057 0.148139,-0.110243 0.279052,-0.215318 0.39274,-0.315226 0.117133,-0.09991 0.19637,-0.177422 0.237711,-0.232543 h 1.11104 z"
           style="font-style:normal;font-variant:normal;font-weight:normal;font-stretch:normal;font-family:'Abyssinica SIL';-inkscape-font-specification:'Abyssinica SIL';fill:#008000"
           id="path16"
           sodipodi:nodetypes="ccccccccscccc" />
        <path
           style="fill:#ff0000;fill-opacity:1;stroke:#ff0000;stroke-width:0.264583px;stroke-linecap:butt;stroke-linejoin:miter;stroke-opacity:1"
           d="m 37.954782,99.66845 1.082266,0.83008 0.775908,-0.98081 c 0.577656,0.94697 0.238229,1.07101 0.924184,0.0481 l 0.479579,0.8905 1.067987,-0.91184 -0.343362,2.35516 -3.641655,-0.10524 z"
           id="path23"
           sodipodi:nodetypes="ccccccccc" />
        <ellipse
           style="fill:#ffff00;fill-opacity:1;stroke:#2b0000;stroke-width:0.04;stroke-miterlimit:4;stroke-dasharray:none"
           id="path854"
           cx="37.855556"
           cy="97.346725"
           rx="0.20712149"
           ry="0.22130854" />
      </g>
    </g>
  </g>
</svg>
